G04*
G04 #@! TF.GenerationSoftware,Altium Limited,Altium Designer,26.1.1 (7)*
G04*
G04 Layer_Color=65535*
%FSLAX44Y44*%
%MOMM*%
G71*
G04*
G04 #@! TF.SameCoordinates,6EADB8A7-F9B0-4FFF-BBB8-B15F2AD61661*
G04*
G04*
G04 #@! TF.FilePolarity,Positive*
G04*
G01*
G75*
%ADD10C,0.2000*%
%ADD11C,0.2540*%
D10*
X828850Y1147110D02*
X834850D01*
X828850Y1121110D02*
X834850D01*
X830150Y1224580D02*
X836150D01*
X830150Y1198580D02*
X836150D01*
D11*
X826019Y1156011D02*
Y1163009D01*
X829517D01*
X830684Y1161843D01*
Y1159510D01*
X829517Y1158344D01*
X826019D01*
X828351D02*
X830684Y1156011D01*
X837682D02*
X833016D01*
X837682Y1160676D01*
Y1161843D01*
X836515Y1163009D01*
X834183D01*
X833016Y1161843D01*
X829725Y1233481D02*
Y1240479D01*
X833224D01*
X834390Y1239313D01*
Y1236980D01*
X833224Y1235814D01*
X829725D01*
X832057D02*
X834390Y1233481D01*
X836723D02*
X839055D01*
X837889D01*
Y1240479D01*
X836723Y1239313D01*
X766575Y1159199D02*
Y1152201D01*
X771240D01*
X778238Y1159199D02*
X773573D01*
Y1152201D01*
X778238D01*
X773573Y1155700D02*
X775905D01*
X780571Y1159199D02*
Y1152201D01*
X784070D01*
X785236Y1153367D01*
Y1158033D01*
X784070Y1159199D01*
X780571D01*
X787568Y1152201D02*
X789901D01*
X788735D01*
Y1159199D01*
X787568Y1158033D01*
X798065Y1152201D02*
X793400D01*
X798065Y1156866D01*
Y1158033D01*
X796899Y1159199D01*
X794566D01*
X793400Y1158033D01*
X705511Y1160469D02*
Y1153471D01*
X710176D01*
X717174Y1160469D02*
X712509D01*
Y1153471D01*
X717174D01*
X712509Y1156970D02*
X714842D01*
X719507Y1160469D02*
Y1153471D01*
X723006D01*
X724172Y1154637D01*
Y1159303D01*
X723006Y1160469D01*
X719507D01*
X726505Y1153471D02*
X728837D01*
X727671D01*
Y1160469D01*
X726505Y1159303D01*
X732336Y1153471D02*
X734669D01*
X733502D01*
Y1160469D01*
X732336Y1159303D01*
X644655Y1160469D02*
Y1153471D01*
X649320D01*
X656318Y1160469D02*
X651653D01*
Y1153471D01*
X656318D01*
X651653Y1156970D02*
X653985D01*
X658651Y1160469D02*
Y1153471D01*
X662150D01*
X663316Y1154637D01*
Y1159303D01*
X662150Y1160469D01*
X658651D01*
X665648Y1153471D02*
X667981D01*
X666815D01*
Y1160469D01*
X665648Y1159303D01*
X671480D02*
X672646Y1160469D01*
X674979D01*
X676145Y1159303D01*
Y1154637D01*
X674979Y1153471D01*
X672646D01*
X671480Y1154637D01*
Y1159303D01*
X585341Y1159199D02*
Y1152201D01*
X590006D01*
X597004Y1159199D02*
X592338D01*
Y1152201D01*
X597004D01*
X592338Y1155700D02*
X594671D01*
X599336Y1159199D02*
Y1152201D01*
X602835D01*
X604002Y1153367D01*
Y1158033D01*
X602835Y1159199D01*
X599336D01*
X606334Y1153367D02*
X607500Y1152201D01*
X609833D01*
X610999Y1153367D01*
Y1158033D01*
X609833Y1159199D01*
X607500D01*
X606334Y1158033D01*
Y1156866D01*
X607500Y1155700D01*
X610999D01*
X520571Y1157929D02*
Y1150931D01*
X525236D01*
X532234Y1157929D02*
X527569D01*
Y1150931D01*
X532234D01*
X527569Y1154430D02*
X529901D01*
X534566Y1157929D02*
Y1150931D01*
X538065D01*
X539231Y1152097D01*
Y1156763D01*
X538065Y1157929D01*
X534566D01*
X541564Y1156763D02*
X542730Y1157929D01*
X545063D01*
X546229Y1156763D01*
Y1155596D01*
X545063Y1154430D01*
X546229Y1153264D01*
Y1152097D01*
X545063Y1150931D01*
X542730D01*
X541564Y1152097D01*
Y1153264D01*
X542730Y1154430D01*
X541564Y1155596D01*
Y1156763D01*
X542730Y1154430D02*
X545063D01*
X462151Y1157929D02*
Y1150931D01*
X466816D01*
X473814Y1157929D02*
X469148D01*
Y1150931D01*
X473814D01*
X469148Y1154430D02*
X471481D01*
X476146Y1157929D02*
Y1150931D01*
X479645D01*
X480812Y1152097D01*
Y1156763D01*
X479645Y1157929D01*
X476146D01*
X483144D02*
X487809D01*
Y1156763D01*
X483144Y1152097D01*
Y1150931D01*
X770761Y1235399D02*
Y1228401D01*
X775426D01*
X782424Y1235399D02*
X777758D01*
Y1228401D01*
X782424D01*
X777758Y1231900D02*
X780091D01*
X784756Y1235399D02*
Y1228401D01*
X788255D01*
X789421Y1229567D01*
Y1234233D01*
X788255Y1235399D01*
X784756D01*
X796419D02*
X794087Y1234233D01*
X791754Y1231900D01*
Y1229567D01*
X792920Y1228401D01*
X795253D01*
X796419Y1229567D01*
Y1230734D01*
X795253Y1231900D01*
X791754D01*
X707261Y1235399D02*
Y1228401D01*
X711926D01*
X718924Y1235399D02*
X714258D01*
Y1228401D01*
X718924D01*
X714258Y1231900D02*
X716591D01*
X721256Y1235399D02*
Y1228401D01*
X724755D01*
X725921Y1229567D01*
Y1234233D01*
X724755Y1235399D01*
X721256D01*
X732919D02*
X728254D01*
Y1231900D01*
X730587Y1233066D01*
X731753D01*
X732919Y1231900D01*
Y1229567D01*
X731753Y1228401D01*
X729420D01*
X728254Y1229567D01*
X647571Y1235399D02*
Y1228401D01*
X652236D01*
X659234Y1235399D02*
X654568D01*
Y1228401D01*
X659234D01*
X654568Y1231900D02*
X656901D01*
X661566Y1235399D02*
Y1228401D01*
X665065D01*
X666232Y1229567D01*
Y1234233D01*
X665065Y1235399D01*
X661566D01*
X672063Y1228401D02*
Y1235399D01*
X668564Y1231900D01*
X673229D01*
X584071Y1235399D02*
Y1228401D01*
X588736D01*
X595734Y1235399D02*
X591068D01*
Y1228401D01*
X595734D01*
X591068Y1231900D02*
X593401D01*
X598066Y1235399D02*
Y1228401D01*
X601565D01*
X602732Y1229567D01*
Y1234233D01*
X601565Y1235399D01*
X598066D01*
X605064Y1234233D02*
X606230Y1235399D01*
X608563D01*
X609729Y1234233D01*
Y1233066D01*
X608563Y1231900D01*
X607397D01*
X608563D01*
X609729Y1230734D01*
Y1229567D01*
X608563Y1228401D01*
X606230D01*
X605064Y1229567D01*
X525651Y1235399D02*
Y1228401D01*
X530316D01*
X537314Y1235399D02*
X532649D01*
Y1228401D01*
X537314D01*
X532649Y1231900D02*
X534981D01*
X539646Y1235399D02*
Y1228401D01*
X543145D01*
X544311Y1229567D01*
Y1234233D01*
X543145Y1235399D01*
X539646D01*
X551309Y1228401D02*
X546644D01*
X551309Y1233066D01*
Y1234233D01*
X550143Y1235399D01*
X547810D01*
X546644Y1234233D01*
X468397Y1236034D02*
Y1229036D01*
X473062D01*
X480060Y1236034D02*
X475395D01*
Y1229036D01*
X480060D01*
X475395Y1232535D02*
X477727D01*
X482393Y1236034D02*
Y1229036D01*
X485891D01*
X487058Y1230202D01*
Y1234868D01*
X485891Y1236034D01*
X482393D01*
X489390Y1229036D02*
X491723D01*
X490557D01*
Y1236034D01*
X489390Y1234868D01*
X419204Y1116641D02*
X421536D01*
X420370D01*
Y1123639D01*
X419204Y1122473D01*
M02*
