G04*
G04 #@! TF.GenerationSoftware,Altium Limited,Altium Designer,26.1.1 (7)*
G04*
G04 Layer_Color=16711935*
%FSLAX44Y44*%
%MOMM*%
G71*
G04*
G04 #@! TF.SameCoordinates,6EADB8A7-F9B0-4FFF-BBB8-B15F2AD61661*
G04*
G04*
G04 #@! TF.FilePolarity,Positive*
G04*
G01*
G75*
%ADD11C,0.2540*%
%ADD22C,0.1000*%
D11*
X869950Y1217300D02*
G03*
X829950Y1257300I-40000J0D01*
G01*
Y1103630D02*
G03*
X869950Y1143630I0J40000D01*
G01*
X325750Y1257300D02*
G03*
X285750Y1217300I0J-40000D01*
G01*
Y1143630D02*
G03*
X325750Y1103630I40000J0D01*
G01*
X829950D01*
X325750Y1257300D02*
X829950D01*
X869950Y1143630D02*
Y1217300D01*
X285750Y1143630D02*
Y1217300D01*
D22*
X765160Y1119810D02*
Y1147810D01*
X800160Y1119810D02*
Y1147810D01*
X765160D02*
X800160D01*
X765160Y1119810D02*
X800160D01*
X702930D02*
Y1147810D01*
X737930Y1119810D02*
Y1147810D01*
X702930D02*
X737930D01*
X702930Y1119810D02*
X737930D01*
X641140D02*
Y1147810D01*
X676140Y1119810D02*
Y1147810D01*
X641140D02*
X676140D01*
X641140Y1119810D02*
X676140D01*
X578910D02*
Y1147810D01*
X613910Y1119810D02*
Y1147810D01*
X578910D02*
X613910D01*
X578910Y1119810D02*
X613910D01*
X517163D02*
Y1147810D01*
X552163Y1119810D02*
Y1147810D01*
X517163D02*
X552163D01*
X517163Y1119810D02*
X552163D01*
X455720D02*
Y1147810D01*
X490720Y1119810D02*
Y1147810D01*
X455720D02*
X490720D01*
X455720Y1119810D02*
X490720D01*
X765160Y1197280D02*
Y1225280D01*
X800160Y1197280D02*
Y1225280D01*
X765160D02*
X800160D01*
X765160Y1197280D02*
X800160D01*
X702930D02*
Y1225280D01*
X737930Y1197280D02*
Y1225280D01*
X702930D02*
X737930D01*
X702930Y1197280D02*
X737930D01*
X641140D02*
Y1225280D01*
X676140Y1197280D02*
Y1225280D01*
X641140D02*
X676140D01*
X641140Y1197280D02*
X676140D01*
X578910D02*
Y1225280D01*
X613910Y1197280D02*
Y1225280D01*
X578910D02*
X613910D01*
X578910Y1197280D02*
X613910D01*
X517163D02*
Y1225280D01*
X552163Y1197280D02*
Y1225280D01*
X517163D02*
X552163D01*
X517163Y1197280D02*
X552163D01*
X455720D02*
Y1225280D01*
X490720Y1197280D02*
Y1225280D01*
X455720D02*
X490720D01*
X455720Y1197280D02*
X490720D01*
M02*
