G04*
G04 #@! TF.GenerationSoftware,Altium Limited,Altium Designer,26.1.1 (7)*
G04*
G04 Layer_Color=8388736*
%FSLAX44Y44*%
%MOMM*%
G71*
G04*
G04 #@! TF.SameCoordinates,6EADB8A7-F9B0-4FFF-BBB8-B15F2AD61661*
G04*
G04*
G04 #@! TF.FilePolarity,Negative*
G04*
G01*
G75*
%ADD17R,1.5532X3.0032*%
G04:AMPARAMS|DCode=18|XSize=1.3032mm|YSize=2.0032mm|CornerRadius=0.2391mm|HoleSize=0mm|Usage=FLASHONLY|Rotation=0.000|XOffset=0mm|YOffset=0mm|HoleType=Round|Shape=RoundedRectangle|*
%AMROUNDEDRECTD18*
21,1,1.3032,1.5250,0,0,0.0*
21,1,0.8250,2.0032,0,0,0.0*
1,1,0.4782,0.4125,-0.7625*
1,1,0.4782,-0.4125,-0.7625*
1,1,0.4782,-0.4125,0.7625*
1,1,0.4782,0.4125,0.7625*
%
%ADD18ROUNDEDRECTD18*%
G04:AMPARAMS|DCode=19|XSize=2.4032mm|YSize=2.0032mm|CornerRadius=0.3266mm|HoleSize=0mm|Usage=FLASHONLY|Rotation=0.000|XOffset=0mm|YOffset=0mm|HoleType=Round|Shape=RoundedRectangle|*
%AMROUNDEDRECTD19*
21,1,2.4032,1.3500,0,0,0.0*
21,1,1.7500,2.0032,0,0,0.0*
1,1,0.6532,0.8750,-0.6750*
1,1,0.6532,-0.8750,-0.6750*
1,1,0.6532,-0.8750,0.6750*
1,1,0.6532,0.8750,0.6750*
%
%ADD19ROUNDEDRECTD19*%
%ADD20R,3.1232X1.4732*%
%ADD21R,1.8532X3.6332*%
D17*
X818100Y1134110D02*
D03*
X845600D02*
D03*
X819400Y1211580D02*
D03*
X846900D02*
D03*
D18*
X796660Y1134110D02*
D03*
X734430D02*
D03*
X672640D02*
D03*
X610410D02*
D03*
X548663D02*
D03*
X487220D02*
D03*
X796660Y1211580D02*
D03*
X734430D02*
D03*
X672640D02*
D03*
X610410D02*
D03*
X548663D02*
D03*
X487220D02*
D03*
D19*
X774260Y1134110D02*
D03*
X712030D02*
D03*
X650240D02*
D03*
X588010D02*
D03*
X526263D02*
D03*
X464820D02*
D03*
X774260Y1211580D02*
D03*
X712030D02*
D03*
X650240D02*
D03*
X588010D02*
D03*
X526263D02*
D03*
X464820D02*
D03*
D20*
X397910Y1164830D02*
D03*
Y1194830D02*
D03*
D21*
X343210Y1125880D02*
D03*
Y1233780D02*
D03*
M02*
